<svg xmlns="http://www.w3.org/2000/svg" width="340" height="200" viewBox="0 0 340 200"><style>* {
          font-family: 'Segoe UI', Ubuntu, "Helvetica Neue", Sans-Serif
        }</style><rect x="1" y="1" rx="5" ry="5" height="99%" width="99.41176470588235%" stroke="#3f3f3f" stroke-width="1" fill="#3f3f3f" stroke-opacity="1"></rect><text x="30" y="40" style="font-size: 22px; fill: #f0dfaf;">Top Languages by Commit</text><g transform="translate(0,40)"><g transform="translate(40,0)"><rect y="18" width="14" height="14" fill="#3178c6" stroke="#3f3f3f" style="stroke-width: 1px;"></rect><rect y="43.2" width="14" height="14" fill="#3572A5" stroke="#3f3f3f" style="stroke-width: 1px;"></rect><rect y="68.4" width="14" height="14" fill="#89e051" stroke="#3f3f3f" style="stroke-width: 1px;"></rect><rect y="93.60000000000002" width="14" height="14" fill="#f1e05a" stroke="#3f3f3f" style="stroke-width: 1px;"></rect><rect y="118.80000000000001" width="14" height="14" fill="#e34c26" stroke="#3f3f3f" style="stroke-width: 1px;"></rect><text x="16.8" y="30" style="fill: #dcdccc; font-size: 14px;">TypeScript</text><text x="16.8" y="55.2" style="fill: #dcdccc; font-size: 14px;">Python</text><text x="16.8" y="80.4" style="fill: #dcdccc; font-size: 14px;">Shell</text><text x="16.8" y="105.60000000000002" style="fill: #dcdccc; font-size: 14px;">JavaScript</text><text x="16.8" y="130.8" style="fill: #dcdccc; font-size: 14px;">HTML</text></g><g transform="translate( 230, 80 )"><g class="arc"><path d="M3.67394039744206e-15,-60A60,60,0,1,1,-0.7953166206239184,59.994728697386066L-0.4639346953639524,34.996925073475204A35,35,0,1,0,2.1431318985078682e-15,-35Z" style="fill: #3178c6; stroke-width: 2px;" stroke="#3f3f3f"></path></g><g class="arc"><path d="M-0.7953166206239184,59.994728697386066A60,60,0,0,1,-59.98813978620393,1.1929312599042214L-34.99308154195229,0.6958765682774626A35,35,0,0,0,-0.4639346953639524,34.996925073475204Z" style="fill: #3572A5; stroke-width: 2px;" stroke="#3f3f3f"></path></g><g class="arc"><path d="M-59.98813978620393,1.1929312599042214A60,60,0,0,1,-50.72774784903103,-32.042091039211655L-29.5911862452681,-18.691219772873467A35,35,0,0,0,-34.99308154195229,0.6958765682774626Z" style="fill: #89e051; stroke-width: 2px;" stroke="#3f3f3f"></path></g><g class="arc"><path d="M-50.72774784903103,-32.042091039211655A60,60,0,0,1,-26.135345680512636,-54.00873731314323L-15.24561831363237,-31.505096766000214A35,35,0,0,0,-29.5911862452681,-18.691219772873467Z" style="fill: #f1e05a; stroke-width: 2px;" stroke="#3f3f3f"></path></g><g class="arc"><path d="M-26.135345680512636,-54.00873731314323A60,60,0,0,1,-1.1021821192326178e-14,-60L-6.429395695523604e-15,-35A35,35,0,0,0,-15.24561831363237,-31.505096766000214Z" style="fill: #e34c26; stroke-width: 2px;" stroke="#3f3f3f"></path></g></g></g></svg>